<?xml version="1.0" encoding="utf-8"?>
<!-- Generator: Adobe Illustrator 15.1.0, SVG Export Plug-In . SVG Version: 6.00 Build 0)  -->
<!DOCTYPE svg PUBLIC "-//W3C//DTD SVG 1.1//EN" "http://www.w3.org/Graphics/SVG/1.1/DTD/svg11.dtd">
<svg version="1.1" id="Layer_1" xmlns="http://www.w3.org/2000/svg" xmlns:xlink="http://www.w3.org/1999/xlink" x="0px" y="0px"
	 width="24px" height="14.964px" viewBox="0 0 24 14.964" enable-background="new 0 0 24 14.964" xml:space="preserve">
<g>
	<defs>
		<rect id="SVGID_1_" width="24" height="24.056"/>
	</defs>
	<clipPath id="SVGID_2_">
		<use xlink:href="#SVGID_1_"  overflow="visible"/>
	</clipPath>
	<path clip-path="url(#SVGID_2_)" fill="#666666" d="M23.731,12.565l-5.778-8.969c-0.611-0.95-2.003-0.949-2.614,0l-0.886,1.374
		l-2.721-4.224c-0.588-0.913-1.905-0.954-2.552-0.091L0.313,12.475c-0.768,1.022-0.037,2.489,1.244,2.489h20.866
		C23.652,14.964,24.397,13.6,23.731,12.565 M17.206,8.052l-1.893,1.402l-3.889-3.45L9.907,6.447L7.7,5.221l2.725-3.632l4.028,6.254
		l2.193-3.404l2.478,3.849L17.206,8.052z"/>
</g>
</svg>
