<?xml version="1.0" encoding="utf-8"?>
<!-- Generator: Adobe Illustrator 15.1.0, SVG Export Plug-In . SVG Version: 6.00 Build 0)  -->
<!DOCTYPE svg PUBLIC "-//W3C//DTD SVG 1.1//EN" "http://www.w3.org/Graphics/SVG/1.1/DTD/svg11.dtd">
<svg version="1.1" id="Layer_1" xmlns="http://www.w3.org/2000/svg" xmlns:xlink="http://www.w3.org/1999/xlink" x="0px" y="0px"
	 width="21.362px" height="16.009px" viewBox="0 0 21.362 16.009" enable-background="new 0 0 21.362 16.009" xml:space="preserve">
<g>
	<defs>
		<rect id="SVGID_1_" width="21.362" height="16.009"/>
	</defs>
	<clipPath id="SVGID_2_">
		<use xlink:href="#SVGID_1_"  overflow="visible"/>
	</clipPath>
	<path clip-path="url(#SVGID_2_)" fill="#666666" d="M11.208,9.604c1.335-0.979,2.136-2.58,2.136-4.27
		c0-2.936-2.402-5.338-5.337-5.338c-2.936,0-5.337,2.402-5.337,5.338c0,1.69,0.8,3.291,2.135,4.27
		C2.225,10.76,0.356,13.161,0,16.009H1.78c0.445-3.025,3.114-5.338,6.227-5.338c3.113,0,5.782,2.312,6.226,5.338h1.779
		C15.657,13.161,13.789,10.76,11.208,9.604 M8.007,8.892c-1.957,0-3.558-1.601-3.558-3.558c0-1.957,1.601-3.558,3.558-3.558
		c1.957,0,3.558,1.601,3.558,3.558C11.565,7.291,9.963,8.892,8.007,8.892"/>
</g>
<path fill="#666666" d="M18.415,9.425c0.712-0.889,1.156-2.045,1.156-3.201c0-3.203-2.846-5.694-5.96-5.338
	c0.267,0.267,0.444,0.623,0.622,0.979c0.179,0.267,0.268,0.533,0.356,0.8c2.046,0.356,3.202,1.869,3.202,3.559
	c0,1.156-0.622,2.224-1.423,2.846c-0.267,0.178-0.356,0.445-0.356,0.712c0,0.445,0.268,0.8,0.713,0.89
	c1.601,0.355,2.846,1.779,2.846,3.47h1.779C21.35,12.184,20.194,10.315,18.415,9.425"/>
</svg>
