<?xml version="1.0" encoding="utf-8"?>
<!-- Generator: Adobe Illustrator 15.1.0, SVG Export Plug-In . SVG Version: 6.00 Build 0)  -->
<!DOCTYPE svg PUBLIC "-//W3C//DTD SVG 1.1//EN" "http://www.w3.org/Graphics/SVG/1.1/DTD/svg11.dtd">
<svg version="1.1" id="Layer_1" xmlns="http://www.w3.org/2000/svg" xmlns:xlink="http://www.w3.org/1999/xlink" x="0px" y="0px"
	 width="90px" height="22.153px" viewBox="0 0 90 22.153" enable-background="new 0 0 90 22.153" xml:space="preserve">
<path fill="#6A3A72" d="M12.67,19.879c-0.348,0.476-0.948,0.902-1.799,1.277c-0.853,0.375-1.782,0.563-2.79,0.563
	c-1.557,0-2.908-0.349-4.053-1.044c-1.145-0.696-2.019-1.645-2.624-2.844c-0.605-1.201-0.907-2.533-0.907-4
	c0-1.465,0.302-2.797,0.907-3.998C2.009,8.636,2.883,7.688,4.028,6.99c1.145-0.696,2.496-1.044,4.053-1.044
	c1.045,0,1.965,0.179,2.762,0.536s1.406,0.81,1.827,1.36V0.615h4.067V21.39H12.67V19.879z M11.709,10.741
	C10.958,9.944,9.95,9.546,8.686,9.546c-1.283,0-2.295,0.398-3.037,1.195c-0.741,0.797-1.112,1.827-1.112,3.091
	c0,1.229,0.38,2.246,1.14,3.051c0.76,0.807,1.763,1.209,3.009,1.209c1.282,0,2.294-0.379,3.036-1.141
	c0.743-0.76,1.113-1.799,1.113-3.119C12.835,12.568,12.46,11.539,11.709,10.741"/>
<path fill="#6A3A72" d="M23.428,20.964c-0.449,0.431-0.984,0.646-1.607,0.646s-1.154-0.216-1.594-0.646
	c-0.44-0.43-0.66-0.948-0.66-1.553c0-0.586,0.22-1.099,0.66-1.538s0.971-0.66,1.594-0.66s1.158,0.221,1.607,0.66
	c0.449,0.439,0.674,0.952,0.674,1.538C24.102,20.016,23.877,20.534,23.428,20.964"/>
<path fill="#E5B449" d="M38.143,19.879c-0.348,0.476-0.948,0.902-1.799,1.277c-0.853,0.375-1.782,0.563-2.79,0.563
	c-1.557,0-2.908-0.349-4.053-1.044c-1.145-0.696-2.019-1.645-2.624-2.844c-0.605-1.201-0.907-2.533-0.907-4
	c0-1.465,0.302-2.797,0.907-3.998c0.605-1.199,1.479-2.147,2.624-2.844c1.145-0.696,2.496-1.044,4.053-1.044
	c1.045,0,1.965,0.179,2.762,0.536s1.406,0.81,1.827,1.36V6.276h4.067V21.39h-4.067V19.879z M37.182,10.741
	c-0.751-0.797-1.759-1.195-3.023-1.195c-1.283,0-2.295,0.398-3.037,1.195c-0.741,0.797-1.112,1.827-1.112,3.091
	c0,1.229,0.38,2.246,1.14,3.051c0.76,0.807,1.763,1.209,3.009,1.209c1.282,0,2.294-0.379,3.036-1.141
	c0.743-0.76,1.113-1.799,1.113-3.119C38.308,12.568,37.933,11.539,37.182,10.741"/>
<path fill="#49A4B3" d="M46.278,21.39V0.616h4.066v7.227c0.421-0.55,1.03-1.003,1.827-1.361c0.797-0.357,1.718-0.535,2.761-0.535
	c1.559,0,2.909,0.348,4.055,1.044c1.145,0.696,2.02,1.644,2.624,2.844c0.604,1.2,0.907,2.532,0.907,3.998s-0.303,2.799-0.907,3.999
	c-0.604,1.199-1.479,2.146-2.624,2.844c-1.146,0.695-2.496,1.044-4.055,1.044c-1.007,0-1.937-0.188-2.787-0.563
	c-0.853-0.375-1.452-0.802-1.801-1.277v1.511H46.278z M51.292,16.951c0.742,0.762,1.753,1.142,3.036,1.142
	c1.246,0,2.248-0.403,3.009-1.209c0.76-0.808,1.142-1.823,1.142-3.051c0-1.265-0.371-2.294-1.113-3.091s-1.755-1.196-3.037-1.196
	c-1.264,0-2.272,0.399-3.023,1.196s-1.126,1.827-1.126,3.091C50.179,15.152,50.55,16.191,51.292,16.951"/>
<rect x="65.898" y="0.615" fill="#CA622F" width="4.122" height="20.775"/>
<path fill="#6A3A72" d="M77.81,21.033c-1.255-0.496-2.331-1.334-3.229-2.516c-0.897-1.181-1.347-2.724-1.347-4.63
	c0-1.905,0.454-3.444,1.361-4.616c0.906-1.173,1.991-2.007,3.256-2.501c1.265-0.495,2.464-0.742,3.6-0.742
	c1.319,0,2.574,0.293,3.766,0.879c1.189,0.587,2.166,1.448,2.926,2.583c0.76,1.137,1.159,2.483,1.195,4.041
	c0,0.477-0.009,0.889-0.027,1.235c-0.019,0.349-0.037,0.569-0.055,0.66H77.329c0.221,1.063,0.771,1.786,1.649,2.171
	s1.704,0.577,2.473,0.577c0.989,0,1.777-0.179,2.364-0.536c0.586-0.357,1.089-0.765,1.511-1.223l3.188,1.841
	c-1.724,2.346-4.077,3.519-7.063,3.519C80.279,21.775,79.065,21.527,77.81,21.033 M78.648,10.467
	c-0.715,0.559-1.117,1.241-1.209,2.047h7.557c-0.055-0.477-0.238-0.934-0.549-1.374c-0.312-0.44-0.729-0.801-1.251-1.085
	c-0.521-0.284-1.113-0.426-1.772-0.426C80.287,9.629,79.363,9.908,78.648,10.467"/>
</svg>
