<?xml version="1.0" encoding="utf-8"?>
<!-- Generator: Adobe Illustrator 15.1.0, SVG Export Plug-In . SVG Version: 6.00 Build 0)  -->
<!DOCTYPE svg PUBLIC "-//W3C//DTD SVG 1.1//EN" "http://www.w3.org/Graphics/SVG/1.1/DTD/svg11.dtd">
<svg version="1.1" id="Layer_1" xmlns="http://www.w3.org/2000/svg" xmlns:xlink="http://www.w3.org/1999/xlink" x="0px" y="0px"
	 width="15.608px" height="14.214px" viewBox="0 0 15.608 14.214" enable-background="new 0 0 15.608 14.214" xml:space="preserve">
<path fill="#666666" d="M0.835,2.787H14.77c0.156,0,0.279-0.125,0.279-0.279c0-0.154-0.123-0.279-0.279-0.279H0.835
	c-0.154,0-0.277,0.125-0.277,0.279C0.559,2.662,0.682,2.787,0.835,2.787"/>
<path fill="#666666" d="M1.673,1.673h12.263c0.152,0,0.279-0.125,0.279-0.279c0-0.154-0.127-0.279-0.279-0.279H1.673
	c-0.154,0-0.279,0.125-0.279,0.279C1.394,1.548,1.519,1.673,1.673,1.673"/>
<path fill="#666666" d="M2.508,0.558H13.1c0.152,0,0.277-0.125,0.277-0.279C13.377,0.125,13.252,0,13.1,0H2.508
	C2.354,0,2.229,0.125,2.229,0.279C2.229,0.433,2.354,0.558,2.508,0.558"/>
<path fill="#666666" d="M0,14.214h15.608V3.345H0V14.214z M13.935,12.542H1.672V5.015h12.263V12.542z"/>
</svg>
